# xmcd CD database file generated by OrangeCD 6.0
#
# Track frame offsets:
#	150
#	14968
#	36235
#	50157
#	63305
#	76901
#	91278
#	111761
#	123723
#	141650
#	158037
#	168299
#	187183
#	207715
#	220068
#	235573
#
# Disc length: 3418 seconds
#
# Revision: 0
# Processed by: cddbd v1.5.2PL0 Copyright (c) Steve Scherf et al.
# Submitted via: OrangeCD 6.0
#
DISCID=f10d5810
DTITLE=Left Lane Cruiser - Gettin' Down On It
DYEAR=1900
DGENRE=
TTITLE0=Big Mama
TTITLE1=Riverwalk
TTITLE2=That Ass (live)
TTITLE3=Set Me Free
TTITLE4=Mountain Top (w/ Tyler)
TTITLE5=Pork n' Beans
TTITLE6=Down the Road
TTITLE7=Truck Song
TTITLE8=KFD (live)
TTITLE9=Shotgun Wedding
TTITLE10=Heart and Soul
TTITLE11=Cheyenne
TTITLE12=Ain't Got Time
TTITLE13=Board Shakers
TTITLE14=What You Want (w/ Tyler)
TTITLE15=My Country
EXTD=
EXTT0=
EXTT1=
EXTT2=
EXTT3=
EXTT4=
EXTT5=
EXTT6=
EXTT7=
EXTT8=
EXTT9=
EXTT10=
EXTT11=
EXTT12=
EXTT13=
EXTT14=
EXTT15=
PLAYORDER=
